<svg width="150" height="150" viewBox="0 0 150 150" fill="none" xmlns="http://www.w3.org/2000/svg">
<path d="M134.935 43.4911C134.935 70.1794 109.228 110.07 79.0159 110.07C48.8041 110.07 23.7048 84.6765 23.7048 57.9881C23.7048 31.2998 32.3931 0 62.6049 0C92.8168 0 134.935 16.8028 134.935 43.4911Z" fill="#90A9BC" fill-opacity="0.6"/>
<path d="M79.0159 110.07C79.0159 136.758 92.8168 150 62.6049 150C32.3931 150 0 107.425 0 80.7364C0 54.0481 32.3931 53.3531 62.6049 53.3531C92.8168 53.3531 79.0159 83.3818 79.0159 110.07Z" fill="#E9D985" fill-opacity="0.6"/>
<path d="M150 98.7947C150 125.483 129.763 127.789 99.5514 127.789C69.3396 127.789 32.6917 136.758 32.6917 110.07C32.6917 83.3818 69.3396 31.1418 99.5514 31.1418C129.763 31.1418 150 72.1064 150 98.7947Z" fill="#A4C3B2" fill-opacity="0.6"/>
</svg>
